<mxfile host="app.diagrams.net" modified="2023-04-11T06:37:33.921Z" agent="Mozilla/5.0 (Windows NT 10.0; Win64; x64) AppleWebKit/537.36 (KHTML, like Gecko) Chrome/111.0.0.0 Safari/537.36" etag="wt0IHddlRDDtYqwH9Bwk" version="21.1.5" type="github">
  <diagram name="Page-1" id="Ktoe7fOUwGwwfNU5fDMl">
    <mxGraphModel dx="954" dy="644" grid="1" gridSize="10" guides="1" tooltips="1" connect="1" arrows="1" fold="1" page="1" pageScale="1" pageWidth="827" pageHeight="1169" math="0" shadow="0">
      <root>
        <mxCell id="0" />
        <mxCell id="1" parent="0" />
      </root>
    </mxGraphModel>
  </diagram>
</mxfile>
